<svg class="main-svg" xmlns="http://www.w3.org/2000/svg" xmlns:xlink="http://www.w3.org/1999/xlink" width="700" height="700" style="" viewBox="0 0 700 700"><rect x="0" y="0" width="700" height="700" style="fill: rgb(255, 255, 255); fill-opacity: 1;"/><defs id="defs-1ae1fd"><g class="clips"><clipPath id="clip1ae1fdxyplot" class="plotclip"><rect width="494.99999999999994" height="520"/></clipPath><clipPath class="axesclip" id="clip1ae1fdx"><rect x="102.50000000000004" y="0" width="494.99999999999994" height="700"/></clipPath><clipPath class="axesclip" id="clip1ae1fdy"><rect x="0" y="100" width="700" height="520"/></clipPath><clipPath class="axesclip" id="clip1ae1fdxy"><rect x="102.50000000000004" y="100" width="494.99999999999994" height="520"/></clipPath></g><g class="gradients"/><g class="patterns"/></defs><g class="bglayer"><rect class="bg" x="102.50000000000004" y="100" width="494.99999999999994" height="520" style="fill: rgb(229, 236, 246); fill-opacity: 1; stroke-width: 0;"/></g><g class="layer-below"><g class="imagelayer"/><g class="shapelayer"/></g><g class="cartesianlayer"><g class="subplot xy"><g class="layer-subplot"><g class="shapelayer"/><g class="imagelayer"/></g><g class="minor-gridlayer"><g class="x"/><g class="y"/></g><g class="gridlayer"><g class="x"><path class="xgrid crisp" transform="translate(202.10000000000002,0)" d="M0,100v520" style="stroke: rgb(255, 255, 255); stroke-opacity: 1; stroke-width: 1px;"/><path class="xgrid crisp" transform="translate(300.70000000000005,0)" d="M0,100v520" style="stroke: rgb(255, 255, 255); stroke-opacity: 1; stroke-width: 1px;"/><path class="xgrid crisp" transform="translate(399.30000000000007,0)" d="M0,100v520" style="stroke: rgb(255, 255, 255); stroke-opacity: 1; stroke-width: 1px;"/><path class="xgrid crisp" transform="translate(497.90000000000003,0)" d="M0,100v520" style="stroke: rgb(255, 255, 255); stroke-opacity: 1; stroke-width: 1px;"/></g><g class="y"><path class="ygrid crisp" transform="translate(0,520.4)" d="M102.50000000000004,0h494.99999999999994" style="stroke: rgb(255, 255, 255); stroke-opacity: 1; stroke-width: 1px;"/><path class="ygrid crisp" transform="translate(0,421.8)" d="M102.50000000000004,0h494.99999999999994" style="stroke: rgb(255, 255, 255); stroke-opacity: 1; stroke-width: 1px;"/><path class="ygrid crisp" transform="translate(0,323.2)" d="M102.50000000000004,0h494.99999999999994" style="stroke: rgb(255, 255, 255); stroke-opacity: 1; stroke-width: 1px;"/><path class="ygrid crisp" transform="translate(0,224.6)" d="M102.50000000000004,0h494.99999999999994" style="stroke: rgb(255, 255, 255); stroke-opacity: 1; stroke-width: 1px;"/><path class="ygrid crisp" transform="translate(0,126)" d="M102.50000000000004,0h494.99999999999994" style="stroke: rgb(255, 255, 255); stroke-opacity: 1; stroke-width: 1px;"/></g></g><g class="zerolinelayer"><path class="xzl zl crisp" transform="translate(103.50000000000004,0)" d="M0,100v520" style="stroke: rgb(255, 255, 255); stroke-opacity: 1; stroke-width: 2px;"/><path class="yzl zl crisp" transform="translate(0,619)" d="M102.50000000000004,0h494.99999999999994" style="stroke: rgb(255, 255, 255); stroke-opacity: 1; stroke-width: 2px;"/></g><path class="xlines-below"/><path class="ylines-below"/><g class="overlines-below"/><g class="xaxislayer-below"/><g class="yaxislayer-below"/><g class="overaxes-below"/><g class="plot" transform="translate(102.50000000000004,100)" clip-path="url(#clip1ae1fdxyplot)"><g class="scatterlayer mlayer"><g class="trace scatter trace091f2d" style="stroke-miterlimit: 2;"><g class="fills"><g><path class="js-fill" d="M494,519L1,519L1,26L120.53,26.75L120.53,26.75L120.53,26.76L136.9,27.1L136.9,27.1L136.91,27.1L154.63,27.53L154.63,27.53L154.64,27.53L176.69,28.28L176.69,28.28L176.69,28.29L214.51,30.07L214.51,30.07L214.52,30.07L225.51,30.78L225.51,30.78L225.52,30.78L253.56,33.38L253.56,33.38L253.57,33.39L260.25,34.14L260.25,34.14L260.25,34.15L276.6,35.97L276.6,35.97L276.6,35.98L308.5,40.94L308.5,40.94L308.5,40.95L317.5,42.88L317.5,42.88L317.5,42.89L356.29,53.35L356.29,53.35L356.29,53.36L371.96,59.36L371.96,59.36L371.96,59.37L388.46,67.17L388.46,67.18L413.14,82.84L413.14,82.84L413.14,82.85L418.66,87.11L418.66,87.11L418.66,87.12L425.21,92.55L425.21,92.55L425.21,92.56L442,110.05L442,110.05L442,110.06L445.73,114.82L445.73,114.82L445.73,114.83L452.82,124.48L452.82,124.48L452.82,124.49L457.15,131.48L457.15,131.48L457.15,131.49L473.23,163.95L473.23,163.94L473.23,163.96L484.13,197.36L484.13,197.36L484.13,197.38L487.85,214.2L487.85,214.2L487.85,214.22L489.84,225.25L489.84,225.24L489.84,225.26L491.82,239.8L491.82,239.8L491.82,239.86L492.72,248.16L492.72,248.15L492.72,248.2L493.62,260.5L493.62,260.45L493.62,260.56L494,272.5L494,272.4" style="fill: rgb(99, 110, 250); fill-opacity: 0.5; stroke-width: 0;"/></g></g><g class="errorbars"/><g class="lines"><path class="js-line" d="M1,26L120.53,26.75L120.53,26.75L120.53,26.76L136.9,27.1L136.9,27.1L136.91,27.1L154.63,27.53L154.63,27.53L154.64,27.53L176.69,28.28L176.69,28.28L176.69,28.29L214.51,30.07L214.51,30.07L214.52,30.07L225.51,30.78L225.51,30.78L225.52,30.78L253.56,33.38L253.56,33.38L253.57,33.39L260.25,34.14L260.25,34.14L260.25,34.15L276.6,35.97L276.6,35.97L276.6,35.98L308.5,40.94L308.5,40.94L308.5,40.95L317.5,42.88L317.5,42.88L317.5,42.89L356.29,53.35L356.29,53.35L356.29,53.36L371.96,59.36L371.96,59.36L371.96,59.37L388.46,67.17L388.46,67.18L413.14,82.84L413.14,82.84L413.14,82.85L418.66,87.11L418.66,87.11L418.66,87.12L425.21,92.55L425.21,92.55L425.21,92.56L442,110.05L442,110.05L442,110.06L445.73,114.82L445.73,114.82L445.73,114.83L452.82,124.48L452.82,124.48L452.82,124.49L457.15,131.48L457.15,131.48L457.15,131.49L473.23,163.95L473.23,163.94L473.23,163.96L484.13,197.36L484.13,197.36L484.13,197.38L487.85,214.2L487.85,214.2L487.85,214.22L489.84,225.25L489.84,225.24L489.84,225.26L491.82,239.8L491.82,239.8L491.82,239.86L492.72,248.16L492.72,248.15L492.72,248.2L493.62,260.5L493.62,260.45L493.62,260.56L494,272.5L494,272.4" style="vector-effect: none; fill: none; stroke: rgb(99, 110, 250); stroke-opacity: 1; stroke-width: 2px; opacity: 1;"/></g><g class="points"/><g class="text"/></g></g></g><g class="overplot"/><path class="xlines-above crisp" d="M0,0" style="fill: none;"/><path class="ylines-above crisp" d="M0,0" style="fill: none;"/><g class="overlines-above"/><g class="xaxislayer-above"><g class="xtick"><text text-anchor="middle" x="0" y="633" transform="translate(103.50000000000004,0)" style="font-family: 'Open Sans', verdana, arial, sans-serif; font-size: 12px; fill: rgb(42, 63, 95); fill-opacity: 1; white-space: pre; opacity: 1;">0</text></g><g class="xtick"><text text-anchor="middle" x="0" y="633" style="font-family: 'Open Sans', verdana, arial, sans-serif; font-size: 12px; fill: rgb(42, 63, 95); fill-opacity: 1; white-space: pre; opacity: 1;" transform="translate(202.10000000000002,0)">0.2</text></g><g class="xtick"><text text-anchor="middle" x="0" y="633" style="font-family: 'Open Sans', verdana, arial, sans-serif; font-size: 12px; fill: rgb(42, 63, 95); fill-opacity: 1; white-space: pre; opacity: 1;" transform="translate(300.70000000000005,0)">0.4</text></g><g class="xtick"><text text-anchor="middle" x="0" y="633" style="font-family: 'Open Sans', verdana, arial, sans-serif; font-size: 12px; fill: rgb(42, 63, 95); fill-opacity: 1; white-space: pre; opacity: 1;" transform="translate(399.30000000000007,0)">0.6</text></g><g class="xtick"><text text-anchor="middle" x="0" y="633" style="font-family: 'Open Sans', verdana, arial, sans-serif; font-size: 12px; fill: rgb(42, 63, 95); fill-opacity: 1; white-space: pre; opacity: 1;" transform="translate(497.90000000000003,0)">0.8</text></g><g class="xtick"><text text-anchor="middle" x="0" y="633" style="font-family: 'Open Sans', verdana, arial, sans-serif; font-size: 12px; fill: rgb(42, 63, 95); fill-opacity: 1; white-space: pre; opacity: 1;" transform="translate(596.5,0)">1</text></g></g><g class="yaxislayer-above"><g class="ytick"><text text-anchor="end" x="101.50000000000004" y="4.199999999999999" transform="translate(0,619)" style="font-family: 'Open Sans', verdana, arial, sans-serif; font-size: 12px; fill: rgb(42, 63, 95); fill-opacity: 1; white-space: pre; opacity: 1;">0</text></g><g class="ytick"><text text-anchor="end" x="101.50000000000004" y="4.199999999999999" style="font-family: 'Open Sans', verdana, arial, sans-serif; font-size: 12px; fill: rgb(42, 63, 95); fill-opacity: 1; white-space: pre; opacity: 1;" transform="translate(0,520.4)">0.2</text></g><g class="ytick"><text text-anchor="end" x="101.50000000000004" y="4.199999999999999" style="font-family: 'Open Sans', verdana, arial, sans-serif; font-size: 12px; fill: rgb(42, 63, 95); fill-opacity: 1; white-space: pre; opacity: 1;" transform="translate(0,421.8)">0.4</text></g><g class="ytick"><text text-anchor="end" x="101.50000000000004" y="4.199999999999999" style="font-family: 'Open Sans', verdana, arial, sans-serif; font-size: 12px; fill: rgb(42, 63, 95); fill-opacity: 1; white-space: pre; opacity: 1;" transform="translate(0,323.2)">0.6</text></g><g class="ytick"><text text-anchor="end" x="101.50000000000004" y="4.199999999999999" style="font-family: 'Open Sans', verdana, arial, sans-serif; font-size: 12px; fill: rgb(42, 63, 95); fill-opacity: 1; white-space: pre; opacity: 1;" transform="translate(0,224.6)">0.8</text></g><g class="ytick"><text text-anchor="end" x="101.50000000000004" y="4.199999999999999" style="font-family: 'Open Sans', verdana, arial, sans-serif; font-size: 12px; fill: rgb(42, 63, 95); fill-opacity: 1; white-space: pre; opacity: 1;" transform="translate(0,126)">1</text></g></g><g class="overaxes-above"/></g></g><g class="polarlayer"/><g class="smithlayer"/><g class="ternarylayer"/><g class="geolayer"/><g class="funnelarealayer"/><g class="pielayer"/><g class="iciclelayer"/><g class="treemaplayer"/><g class="sunburstlayer"/><g class="glimages"/><defs id="topdefs-1ae1fd"><g class="clips"/></defs><g class="layer-above"><g class="imagelayer"/><g class="shapelayer"><g class="shape-group" data-index="0" clip-path="url(#clip1ae1fdxy)"><path data-index="0" fill-rule="evenodd" d="M103.50000000000004,126L596.5,619" style="opacity: 1; stroke: rgb(42, 63, 95); stroke-opacity: 1; fill: rgb(0, 0, 0); fill-opacity: 0; stroke-dasharray: 9px, 9px; stroke-width: 2px;"/></g></g></g><g class="infolayer"><g class="g-gtitle"><text class="gtitle" x="35" y="50" text-anchor="start" dy="0em" style="font-family: 'Open Sans', verdana, arial, sans-serif; font-size: 17px; fill: rgb(42, 63, 95); opacity: 1; font-weight: normal; white-space: pre;">Precision-Recall Curve (AUC=0.9404)</text></g><g class="g-xtitle"><text class="xtitle" x="350" y="660.3" text-anchor="middle" style="font-family: 'Open Sans', verdana, arial, sans-serif; font-size: 14px; fill: rgb(42, 63, 95); opacity: 1; font-weight: normal; white-space: pre;">Recall</text></g><g class="g-ytitle"><text class="ytitle" transform="rotate(-90,60.5125,360)" x="60.5125" y="360" text-anchor="middle" style="font-family: 'Open Sans', verdana, arial, sans-serif; font-size: 14px; fill: rgb(42, 63, 95); opacity: 1; font-weight: normal; white-space: pre;">Precision</text></g></g></svg>