<svg class="main-svg" xmlns="http://www.w3.org/2000/svg" xmlns:xlink="http://www.w3.org/1999/xlink" width="700" height="700" style="" viewBox="0 0 700 700"><rect x="0" y="0" width="700" height="700" style="fill: rgb(255, 255, 255); fill-opacity: 1;"/><defs id="defs-e6e759"><g class="clips"><clipPath id="clipe6e759xyplot" class="plotclip"><rect width="494.99999999999994" height="520"/></clipPath><clipPath class="axesclip" id="clipe6e759x"><rect x="102.50000000000004" y="0" width="494.99999999999994" height="700"/></clipPath><clipPath class="axesclip" id="clipe6e759y"><rect x="0" y="100" width="700" height="520"/></clipPath><clipPath class="axesclip" id="clipe6e759xy"><rect x="102.50000000000004" y="100" width="494.99999999999994" height="520"/></clipPath></g><g class="gradients"/><g class="patterns"/></defs><g class="bglayer"><rect class="bg" x="102.50000000000004" y="100" width="494.99999999999994" height="520" style="fill: rgb(229, 236, 246); fill-opacity: 1; stroke-width: 0;"/></g><g class="layer-below"><g class="imagelayer"/><g class="shapelayer"/></g><g class="cartesianlayer"><g class="subplot xy"><g class="layer-subplot"><g class="shapelayer"/><g class="imagelayer"/></g><g class="minor-gridlayer"><g class="x"/><g class="y"/></g><g class="gridlayer"><g class="x"><path class="xgrid crisp" transform="translate(202.10000000000002,0)" d="M0,100v520" style="stroke: rgb(255, 255, 255); stroke-opacity: 1; stroke-width: 1px;"/><path class="xgrid crisp" transform="translate(300.70000000000005,0)" d="M0,100v520" style="stroke: rgb(255, 255, 255); stroke-opacity: 1; stroke-width: 1px;"/><path class="xgrid crisp" transform="translate(399.30000000000007,0)" d="M0,100v520" style="stroke: rgb(255, 255, 255); stroke-opacity: 1; stroke-width: 1px;"/><path class="xgrid crisp" transform="translate(497.90000000000003,0)" d="M0,100v520" style="stroke: rgb(255, 255, 255); stroke-opacity: 1; stroke-width: 1px;"/></g><g class="y"><path class="ygrid crisp" transform="translate(0,520.4)" d="M102.50000000000004,0h494.99999999999994" style="stroke: rgb(255, 255, 255); stroke-opacity: 1; stroke-width: 1px;"/><path class="ygrid crisp" transform="translate(0,421.8)" d="M102.50000000000004,0h494.99999999999994" style="stroke: rgb(255, 255, 255); stroke-opacity: 1; stroke-width: 1px;"/><path class="ygrid crisp" transform="translate(0,323.2)" d="M102.50000000000004,0h494.99999999999994" style="stroke: rgb(255, 255, 255); stroke-opacity: 1; stroke-width: 1px;"/><path class="ygrid crisp" transform="translate(0,224.6)" d="M102.50000000000004,0h494.99999999999994" style="stroke: rgb(255, 255, 255); stroke-opacity: 1; stroke-width: 1px;"/><path class="ygrid crisp" transform="translate(0,126)" d="M102.50000000000004,0h494.99999999999994" style="stroke: rgb(255, 255, 255); stroke-opacity: 1; stroke-width: 1px;"/></g></g><g class="zerolinelayer"><path class="xzl zl crisp" transform="translate(103.50000000000004,0)" d="M0,100v520" style="stroke: rgb(255, 255, 255); stroke-opacity: 1; stroke-width: 2px;"/><path class="yzl zl crisp" transform="translate(0,619)" d="M102.50000000000004,0h494.99999999999994" style="stroke: rgb(255, 255, 255); stroke-opacity: 1; stroke-width: 2px;"/></g><path class="xlines-below"/><path class="ylines-below"/><g class="overlines-below"/><g class="xaxislayer-below"/><g class="yaxislayer-below"/><g class="overaxes-below"/><g class="plot" transform="translate(102.50000000000004,100)" clip-path="url(#clipe6e759xyplot)"><g class="scatterlayer mlayer"><g class="trace scatter trace785483" style="stroke-miterlimit: 2;"><g class="fills"><g><path class="js-fill" d="M494,519L1,519L1,519L1.75,347.23L1.76,347.23L2.51,313.34L2.51,313.34L2.52,313.34L3.27,292.45L3.27,292.45L3.28,292.45L4.02,278.47L4.02,278.47L4.03,278.47L4.78,267.23L4.78,267.23L4.79,267.23L7.56,234.7L7.57,234.7L9.24,220.8L9.25,220.8L13.06,197.74L13.07,197.74L18.38,174.98L18.38,174.98L18.39,174.98L20.59,167.77L20.6,167.77L27.67,148.59L27.67,148.59L27.68,148.59L34.5,134.55L34.5,134.55L34.51,134.55L39.07,127.09L39.07,127.09L39.08,127.09L54.39,107.18L54.39,107.18L54.4,107.18L69.73,92.73L69.73,92.73L69.74,92.73L86.42,80.98L86.42,80.98L86.43,80.98L117.26,65.79L117.26,65.79L117.27,65.79L129.22,61.47L129.22,61.47L129.23,61.47L169.41,50.1L169.41,50.1L169.43,50.1L176.8,48.43L176.8,48.43L176.81,48.43L189.55,45.8L189.55,45.8L189.56,45.8L216.66,41.13L216.66,41.13L216.7,41.13L230.6,39.11L230.6,39.11L230.61,39.11L265.96,35.13L265.96,35.13L265.97,35.13L283.24,33.57L283.24,33.57L283.27,33.57L365.23,28.62L365.23,28.62L365.27,28.62L414.81,27L414.81,27L414.85,27L431.48,26.64L431.48,26.64L431.51,26.64L494,26" style="fill: rgb(99, 110, 250); fill-opacity: 0.5; stroke-width: 0;"/></g></g><g class="errorbars"/><g class="lines"><path class="js-line" d="M1,519L1.75,347.23L1.76,347.23L2.51,313.34L2.51,313.34L2.52,313.34L3.27,292.45L3.27,292.45L3.28,292.45L4.02,278.47L4.02,278.47L4.03,278.47L4.78,267.23L4.78,267.23L4.79,267.23L7.56,234.7L7.57,234.7L9.24,220.8L9.25,220.8L13.06,197.74L13.07,197.74L18.38,174.98L18.38,174.98L18.39,174.98L20.59,167.77L20.6,167.77L27.67,148.59L27.67,148.59L27.68,148.59L34.5,134.55L34.5,134.55L34.51,134.55L39.07,127.09L39.07,127.09L39.08,127.09L54.39,107.18L54.39,107.18L54.4,107.18L69.73,92.73L69.73,92.73L69.74,92.73L86.42,80.98L86.42,80.98L86.43,80.98L117.26,65.79L117.26,65.79L117.27,65.79L129.22,61.47L129.22,61.47L129.23,61.47L169.41,50.1L169.41,50.1L169.43,50.1L176.8,48.43L176.8,48.43L176.81,48.43L189.55,45.8L189.55,45.8L189.56,45.8L216.66,41.13L216.66,41.13L216.7,41.13L230.6,39.11L230.6,39.11L230.61,39.11L265.96,35.13L265.96,35.13L265.97,35.13L283.24,33.57L283.24,33.57L283.27,33.57L365.23,28.62L365.23,28.62L365.27,28.62L414.81,27L414.81,27L414.85,27L431.48,26.64L431.48,26.64L431.51,26.64L494,26" style="vector-effect: none; fill: none; stroke: rgb(99, 110, 250); stroke-opacity: 1; stroke-width: 2px; opacity: 1;"/></g><g class="points"/><g class="text"/></g></g></g><g class="overplot"/><path class="xlines-above crisp" d="M0,0" style="fill: none;"/><path class="ylines-above crisp" d="M0,0" style="fill: none;"/><g class="overlines-above"/><g class="xaxislayer-above"><g class="xtick"><text text-anchor="middle" x="0" y="633" transform="translate(103.50000000000004,0)" style="font-family: 'Open Sans', verdana, arial, sans-serif; font-size: 12px; fill: rgb(42, 63, 95); fill-opacity: 1; white-space: pre; opacity: 1;">0</text></g><g class="xtick"><text text-anchor="middle" x="0" y="633" style="font-family: 'Open Sans', verdana, arial, sans-serif; font-size: 12px; fill: rgb(42, 63, 95); fill-opacity: 1; white-space: pre; opacity: 1;" transform="translate(202.10000000000002,0)">0.2</text></g><g class="xtick"><text text-anchor="middle" x="0" y="633" style="font-family: 'Open Sans', verdana, arial, sans-serif; font-size: 12px; fill: rgb(42, 63, 95); fill-opacity: 1; white-space: pre; opacity: 1;" transform="translate(300.70000000000005,0)">0.4</text></g><g class="xtick"><text text-anchor="middle" x="0" y="633" style="font-family: 'Open Sans', verdana, arial, sans-serif; font-size: 12px; fill: rgb(42, 63, 95); fill-opacity: 1; white-space: pre; opacity: 1;" transform="translate(399.30000000000007,0)">0.6</text></g><g class="xtick"><text text-anchor="middle" x="0" y="633" style="font-family: 'Open Sans', verdana, arial, sans-serif; font-size: 12px; fill: rgb(42, 63, 95); fill-opacity: 1; white-space: pre; opacity: 1;" transform="translate(497.90000000000003,0)">0.8</text></g><g class="xtick"><text text-anchor="middle" x="0" y="633" style="font-family: 'Open Sans', verdana, arial, sans-serif; font-size: 12px; fill: rgb(42, 63, 95); fill-opacity: 1; white-space: pre; opacity: 1;" transform="translate(596.5,0)">1</text></g></g><g class="yaxislayer-above"><g class="ytick"><text text-anchor="end" x="101.50000000000004" y="4.199999999999999" transform="translate(0,619)" style="font-family: 'Open Sans', verdana, arial, sans-serif; font-size: 12px; fill: rgb(42, 63, 95); fill-opacity: 1; white-space: pre; opacity: 1;">0</text></g><g class="ytick"><text text-anchor="end" x="101.50000000000004" y="4.199999999999999" style="font-family: 'Open Sans', verdana, arial, sans-serif; font-size: 12px; fill: rgb(42, 63, 95); fill-opacity: 1; white-space: pre; opacity: 1;" transform="translate(0,520.4)">0.2</text></g><g class="ytick"><text text-anchor="end" x="101.50000000000004" y="4.199999999999999" style="font-family: 'Open Sans', verdana, arial, sans-serif; font-size: 12px; fill: rgb(42, 63, 95); fill-opacity: 1; white-space: pre; opacity: 1;" transform="translate(0,421.8)">0.4</text></g><g class="ytick"><text text-anchor="end" x="101.50000000000004" y="4.199999999999999" style="font-family: 'Open Sans', verdana, arial, sans-serif; font-size: 12px; fill: rgb(42, 63, 95); fill-opacity: 1; white-space: pre; opacity: 1;" transform="translate(0,323.2)">0.6</text></g><g class="ytick"><text text-anchor="end" x="101.50000000000004" y="4.199999999999999" style="font-family: 'Open Sans', verdana, arial, sans-serif; font-size: 12px; fill: rgb(42, 63, 95); fill-opacity: 1; white-space: pre; opacity: 1;" transform="translate(0,224.6)">0.8</text></g><g class="ytick"><text text-anchor="end" x="101.50000000000004" y="4.199999999999999" style="font-family: 'Open Sans', verdana, arial, sans-serif; font-size: 12px; fill: rgb(42, 63, 95); fill-opacity: 1; white-space: pre; opacity: 1;" transform="translate(0,126)">1</text></g></g><g class="overaxes-above"/></g></g><g class="polarlayer"/><g class="smithlayer"/><g class="ternarylayer"/><g class="geolayer"/><g class="funnelarealayer"/><g class="pielayer"/><g class="iciclelayer"/><g class="treemaplayer"/><g class="sunburstlayer"/><g class="glimages"/><defs id="topdefs-e6e759"><g class="clips"/></defs><g class="layer-above"><g class="imagelayer"/><g class="shapelayer"><g class="shape-group" data-index="0" clip-path="url(#clipe6e759xy)"><path data-index="0" fill-rule="evenodd" d="M103.50000000000004,619L596.5,126" style="opacity: 1; stroke: rgb(42, 63, 95); stroke-opacity: 1; fill: rgb(0, 0, 0); fill-opacity: 0; stroke-dasharray: 9px, 9px; stroke-width: 2px;"/></g></g></g><g class="infolayer"><g class="g-gtitle"><text class="gtitle" x="35" y="50" text-anchor="start" dy="0em" style="font-family: 'Open Sans', verdana, arial, sans-serif; font-size: 17px; fill: rgb(42, 63, 95); opacity: 1; font-weight: normal; white-space: pre;">ROC Curve (AUC=0.9396)</text></g><g class="g-xtitle"><text class="xtitle" x="350" y="660.3" text-anchor="middle" style="font-family: 'Open Sans', verdana, arial, sans-serif; font-size: 14px; fill: rgb(42, 63, 95); opacity: 1; font-weight: normal; white-space: pre;">False Positive Rate</text></g><g class="g-ytitle"><text class="ytitle" transform="rotate(-90,60.5125,360)" x="60.5125" y="360" text-anchor="middle" style="font-family: 'Open Sans', verdana, arial, sans-serif; font-size: 14px; fill: rgb(42, 63, 95); opacity: 1; font-weight: normal; white-space: pre;">True Positive Rate</text></g></g></svg>